<svg width="254" height="134" viewBox="0 0 254 134" fill="none" xmlns="http://www.w3.org/2000/svg"><g clip-path="url(#clip0)" fill="#fff"><path d="M200.945.477h19.768c.136 0 .272.136.272.273v4.362c0 .136-.136.273-.272.273h-6.953c-.136 0-.273.136-.273.272v19.154c0 .137-.136.273-.272.273h-4.704c-.136 0-.272-.136-.272-.273V5.726a.294.294 0 00-.273-.273h-6.953c-.136 0-.272-.136-.272-.273V.818c-.068-.205.068-.34.204-.34zm32.787 0h4.703c.136 0 .273.136.273.273v9.134c0 .136.136.272.272.272h9.407a.293.293 0 00.272-.272V.818c0-.136.137-.273.273-.273h4.703c.137 0 .273.137.273.273v24.13a.293.293 0 01-.273.272h-4.703c-.136 0-.273-.136-.273-.272v-9.475c0-.136-.136-.273-.272-.273h-9.407c-.136 0-.272.137-.272.273v9.475c0 .136-.137.272-.273.272h-4.703a.293.293 0 01-.273-.272V.818c0-.205.136-.34.273-.34zm-90.998 0c.137 0 .273.068.273.273l3.067 16.836c.068.477.818.477.886 0L150.028.75c0-.137.136-.273.272-.273h5.931c.136 0 .272.068.272.273l3.068 16.836c.068.477.817.477.886 0L163.524.75c0-.137.136-.273.273-.273h4.839c.205 0 .341.205.273.34l-4.976 24.13c0 .137-.136.205-.273.205h-6.612c-.136 0-.272-.068-.272-.273l-3.068-16.154c-.068-.477-.817-.477-.886 0l-3.067 16.155a.293.293 0 01-.273.272h-6.611c-.137 0-.273-.068-.273-.204L137.622.818c-.068-.205.136-.34.273-.34h4.839zM35.785 25.22h4.976a.293.293 0 00.273-.272V.818a.293.293 0 00-.273-.273h-4.976a.293.293 0 00-.272.273v24.13c-.068.136.068.273.273.273zm147.165 0h4.976a.293.293 0 00.273-.272V.818a.293.293 0 00-.273-.273h-4.976c-.136 0-.272.137-.272.273v24.13c0 .136.136.273.272.273zM73.48 16.36L64.755.681c-.068-.068-.136-.137-.272-.137h-6.408a.293.293 0 00-.272.273v24.13c0 .136.136.273.272.273h4.704a.293.293 0 00.272-.273v-7.77c0-2.318-.068-4.636-.204-7.022V9.61c-.068-.613.818-.886 1.09-.34l8.725 15.745c.069.068.137.136.273.136h6.407a.293.293 0 00.273-.272V.818a.293.293 0 00-.273-.273H74.64a.293.293 0 00-.273.273v7.703c0 2.317.069 4.635.205 7.02v.546c.068.613-.75.818-1.09.272zm30.674-7.362c-2.386-.614-4.43-1.16-4.43-2.522 0-1.227 1.226-1.977 3.135-1.977 2.863 0 3.544 1.5 3.749 2.181.068.136.136.204.272.204h4.499c.205 0 .341-.136.273-.34-.273-1.5-1.909-6.544-8.793-6.544-4.09 0-8.248 2.25-8.248 6.612 0 4.567 4.362 5.726 7.839 6.612 2.386.613 4.43 1.159 4.43 2.522 0 1.772-1.976 2.113-3.612 2.113-3.34 0-4.226-2.181-4.499-2.863-.068-.136-.136-.205-.273-.205h-4.43c-.205 0-.341.205-.273.341.34 1.5 2.181 7.226 9.543 7.226 5.998 0 8.657-3.409 8.657-6.749 0-4.566-4.363-5.725-7.839-6.611zm-7.021 25.084h11.383a.293.293 0 00.273-.273v-3.885a.293.293 0 00-.273-.273H97.133a.293.293 0 00-.273.273v3.885c0 .136.137.273.273.273zM15.405.613l-6.407 9.27c-.069.069-.137.137-.273.137H5.862a.293.293 0 01-.273-.273V.817a.293.293 0 00-.272-.272H.273C.136.477 0 .613 0 .818v24.13c0 .136.136.272.273.272h4.976a.293.293 0 00.272-.272v-9.339c0-.136.137-.272.273-.272H8.86c.068 0 .205.068.273.136l6.612 9.68c.068.067.136.136.272.136h5.794c.273 0 .41-.273.273-.478l-5.521-8.18a32.638 32.638 0 01-1.295-1.976c-.478-.682-.818-1.295-.886-2.181 0-.886.408-1.5.817-2.181.41-.682.887-1.296 1.364-1.977L21.54 1.09c.136-.204 0-.477-.273-.477h-5.59c-.136-.136-.204-.068-.272 0z"/></g><path stroke="#fff" d="M24.5 79.5h204v54h-204z"/><path d="M86.28 102.2l2.59 9.8h3.64l2.59-9.8h-1.33l-2.24 8.61h-1.68l-2.24-8.61h-1.33zm11.419 9.8h1.26v-9.8h-1.26v9.8zm4.7 0h6.86v-1.19h-5.6v-3.15h4.55v-1.19h-4.55v-3.08h5.6v-1.19h-6.86v9.8zm9.045-9.8l2.17 9.8h2.24l1.75-8.61h.35l1.75 8.61h2.24l2.17-9.8h-1.33l-1.82 8.61h-.35l-1.82-8.61h-2.03l-1.82 8.61h-.35l-1.82-8.61h-1.33zm20.531 9.8h1.26v-8.4l-.014-.14h.028l2.856 6.16h2.31l2.856-6.16h.028l-.014.14v8.4h1.26v-9.8h-2.03l-2.94 6.3h-.63l-2.94-6.3h-2.03v9.8zm13.521-4.9c0 3.01 2.17 5.18 5.11 5.18 2.94 0 5.11-2.17 5.11-5.18s-2.17-5.18-5.11-5.18c-2.94 0-5.11 2.17-5.11 5.18zm1.26 0c0-2.38 1.61-3.99 3.85-3.99s3.85 1.61 3.85 3.99-1.61 3.99-3.85 3.99-3.85-1.61-3.85-3.99zm11.914 4.9h1.26v-3.64h2.59l2.38 3.64h1.47l-2.52-3.78c1.652-.35 2.59-1.498 2.59-2.94 0-1.75-1.33-3.08-3.57-3.08h-4.2v9.8zm1.26-4.83v-3.78h2.94c1.54 0 2.31.77 2.31 1.89 0 1.12-.77 1.89-2.31 1.89h-2.94zm9.524 4.83h6.86v-1.19h-5.6v-3.15h4.55v-1.19h-4.55v-3.08h5.6v-1.19h-6.86v9.8z" fill="#F7F6F4"/><defs><clipPath id="clip0"><path fill="#fff" d="M0 0h253.976v34.082H0z"/></clipPath></defs></svg>