<svg width="194" height="66" viewBox="0 0 194 66" fill="none" xmlns="http://www.w3.org/2000/svg"><path d="M33.223 4.426h-4.054a.241.241 0 00-.241.241V24.26c0 .133.108.241.241.241h4.054a.241.241 0 00.241-.24V4.666a.241.241 0 00-.241-.241zm26.694 12.909l-7.239-12.91H47.08v20.077h4.295v-6.49c0-1.883 0-3.789-.169-5.671v-.483a.482.482 0 01.917-.265l7.239 12.91h5.598V4.425h-4.32v6.492c0 1.906 0 3.812.17 5.694v.458a.483.483 0 01-.893.265zm24.821-5.989c-1.93-.482-3.595-.917-3.595-2.051 0-1.134.965-1.617 2.558-1.617 2.292 0 2.895 1.255 3.04 1.762a.241.241 0 00.241.168h3.62a.24.24 0 00.241-.29 6.707 6.707 0 00-7.239-5.284c-3.33 0-6.684 1.858-6.684 5.381s3.523 4.633 6.37 5.357c1.931.507 3.596.917 3.596 2.075 0 1.158-1.593 1.713-2.92 1.713a3.426 3.426 0 01-3.643-2.413.218.218 0 00-.241-.169h-3.62a.217.217 0 00-.241.29 7.478 7.478 0 007.745 5.863c4.826 0 7.046-2.75 7.046-5.477.097-3.644-3.45-4.44-6.274-5.308zm3.562 16.78h-9.242a.241.241 0 00-.242.241v3.137c0 .133.108.241.242.241h9.241a.241.241 0 00.242-.24v-3.138a.241.241 0 00-.242-.241zM12.62 4.544l-5.212 7.552a.24.24 0 01-.217 0H4.778a.241.241 0 01-.242-.241v-7.24a.239.239 0 00-.149-.222.242.242 0 00-.092-.019H.241A.267.267 0 000 4.616v19.642a.24.24 0 00.149.222.24.24 0 00.092.02h4.175a.218.218 0 00.241-.242V16.68a.267.267 0 01.241-.242h2.413a.267.267 0 01.217.122l5.357 7.842a.216.216 0 00.193 0h4.826a.242.242 0 00.193-.362l-4.464-6.684-1.086-1.593a3.473 3.473 0 01-.7-1.785 3.114 3.114 0 01.676-1.786l1.11-1.593 4.03-5.887a.24.24 0 00-.066-.35.24.24 0 00-.127-.036h-4.56a.264.264 0 00-.29.217zm126.798 19.829h.854v-9.25L128.222.591h-8.118l.059 1.21 19.255 22.57zm-16.337-5.337h-.536l-2.938 5.34h6.392l-2.918-5.34zm27.65 5.208h-7.722v-.595a9.934 9.934 0 00.735-3.593v-3.593a15.872 15.872 0 00-.477-4.863 2.579 2.579 0 00-1.072-1.528v-.398l7.802-1.865v12.247a9.912 9.912 0 00.734 3.593v.595h-7.722 7.722zm-3.924-17.931a3.156 3.156 0 100-6.313 3.156 3.156 0 000 6.313zm16.569 6.34l-.337-4.208a13.702 13.702 0 00-5.182-.655 5.777 5.777 0 00-6.074 5.717 4.288 4.288 0 002.74 4.268c1.131.734 5.121 2.6 5.796 3.97.675 1.37 0 2.322-1.806 2.322a10.46 10.46 0 01-4.328-2.6 13.904 13.904 0 01-2.263-2.461h-.258l.457 4.665a17.383 17.383 0 006.074 1.27c3.117 0 6.451-1.27 6.451-5.459a5.632 5.632 0 00-1.985-4.129c-1.786-1.528-4.407-2.243-5.598-3.275-1.985-1.727-.794-3.316.993-3.316 2.739 0 4.764 3.97 4.764 3.97l.556-.08zm13.617-.001l-.317-4.208a13.9 13.9 0 00-5.201-.655 5.76 5.76 0 00-5.578 3.456 5.77 5.77 0 00-.477 2.26 4.288 4.288 0 002.72 4.269c1.131.734 5.121 2.6 5.796 3.97.675 1.37 0 2.322-1.806 2.322a10.585 10.585 0 01-4.328-2.6 13.942 13.942 0 01-2.263-2.462h-.258l.457 4.666a17.39 17.39 0 006.074 1.27c3.117 0 6.452-1.27 6.452-5.459a5.65 5.65 0 00-1.985-4.129c-1.787-1.528-4.407-2.243-5.598-3.275-1.985-1.727-.794-3.316.992-3.316 2.74 0 4.764 3.97 4.764 3.97l.556-.08z" fill="#fff"/><path d="M187.958 17.641s-1.29-3.156-2.183-5.4a4.811 4.811 0 01.516-3.652v-.198h-8.853v.198s6.451 14.809 6.908 15.682c.456.874-.318 2.104-2.442 2.362-1.24.138-2.492.138-3.732 0v5.142a10.84 10.84 0 006.392-4.466 165.693 165.693 0 006.888-15.305 10.658 10.658 0 012.223-3.117v-.555h-4.188v.198a2.5 2.5 0 01.873 2.203 16.908 16.908 0 01-2.402 6.908zM123.254 2.194h-.873v20.248h.873V2.194zm16.317 3.628h.536l2.918-5.32h-6.392l2.938 5.32z" fill="#fff"/><path d="M140.272 4.121h-.874V24.37h.874V4.12zM11.634 56.485c.03-.255.165-.405.42-.405h7.5c.255 0 .39.15.42.405v6.24c-.03.255-.165.39-.42.42h-7.5c-.255-.03-.39-.165-.42-.42v-6.24zm8.025 7.875c.18 0 .255.075.27.27.015.375.105.39.78.39.615 0 .795.015.795-.375 0-.51-.03-1.035-.03-1.545v-6.375c0-.405.03-.795.03-1.2 0-.6-.33-.705-.855-.705-.45 0-.915.03-1.365.03h-6.93c-.45 0-.915-.03-1.365-.03-.525 0-.84.12-.84.705 0 .405.015.81.015 1.2V63.1c0 .51-.03 1.02-.03 1.53 0 .39.18.39.765.39.66 0 .765-.015.765-.39.03-.195.09-.27.285-.27h7.71zm-2.91-3.945c.3.375 1.77 2.04 2.175 2.04.27 0 .81-.63.81-.855 0-.12-.15-.21-.24-.27a10.86 10.86 0 01-1.785-1.41c-.045-.045-.06-.075-.06-.135 0-.105.105-.15.195-.15.45 0 .885.03 1.335.03.3 0 .3-.135.3-.57 0-.45 0-.585-.3-.585-.495 0-.975.03-1.47.03h-.78c-.3 0-.42-.12-.42-.405v-.09c0-.24.09-.345.315-.39.105-.015.81-.12 1.245-.18.21-.03.345-.045.345-.045.045 0 .105.015.15.03.06.03.15.06.21.06.075 0 .135-.06.135-.135 0-.135-.135-.315-.225-.435-.045-.06-.075-.12-.12-.18-.18-.27-.315-.48-.435-.48a.79.79 0 00-.27.06c-1.2.315-3.465.435-4.74.435h-.18c-.24 0-.435.03-.435.345 0 .135.045.345.09.465.09.225.165.285.405.285.615 0 1.23-.03 1.845-.06.195 0 .27.09.27.27v.18c0 .195-.09.27-.285.27h-.96c-.48 0-.975-.03-1.47-.03-.285 0-.285.135-.285.585 0 .435-.015.57.285.57.465 0 .93-.03 1.38-.03.105 0 .195.045.195.15 0 .06-.015.105-.06.135-.54.525-1.05.93-1.695 1.32-.195.12-.39.21-.39.345 0 .24.585.87.84.87.12 0 .24-.09.33-.165.765-.585 1.275-1.11 1.875-1.86.03-.03.06-.06.12-.06.09 0 .105.09.12.165v.33c0 .45-.045.915-.045 1.365 0 .42.18.42.75.42.57 0 .735 0 .735-.42 0-.45-.045-.915-.045-1.365v-.36c0-.06.03-.15.12-.15.06 0 .09.03.12.06zm-2.295-8.16c0-.135.06-.21.165-.285.09-.06.165-.105.165-.195 0-.15-.255-.15-.375-.165-.27-.03-1.035-.09-1.275-.09-.12 0-.27 0-.27.18 0 .03.015.09.015.12.015.105.03.195.03.285 0 .285-.12.405-.39.405h-1.2c-.585 0-1.17-.045-1.755-.045-.36 0-.345.165-.345.69 0 .525-.015.675.345.675.585 0 1.17-.03 1.755-.03h1.185c.225 0 .39.09.405.345-.015.06-.015.105-.015.165 0 .36.195.36.795.36.57 0 .78 0 .78-.375 0-.045 0-.105-.015-.15.015-.255.165-.345.405-.345h1.92c.225 0 .39.09.39.345v.165c0 .375.21.36.765.36.6 0 .795 0 .795-.39v-.135c0-.255.165-.345.405-.345h1.2c.585 0 1.17.03 1.755.03.36 0 .36-.12.36-.675 0-.54 0-.69-.36-.69-.585 0-1.17.045-1.755.045h-1.23c-.165-.015-.36-.06-.39-.255 0-.105.015-.165.165-.27.105-.075.165-.105.165-.195 0-.15-.24-.165-.39-.18-.255-.015-1.035-.09-1.26-.09-.12 0-.255.03-.255.18 0 .03.03.315.045.405 0 .285-.12.405-.405.405h-1.935c-.165-.015-.36-.045-.39-.255zm16.395.495c0 .06.03.12.045.18.12.315.195.645.285.99.15.615.57 2.205.75 2.745.045.09.06.15.06.27 0 .18-.105.285-.255.39-1.245.81-2.595 1.875-2.595 3.51 0 .99.54 1.83 1.38 2.31.99.585 1.965.645 3.075.645.72 0 3.555-.09 4.125-.24.3-.075.315-.24.315-.63v-.18c0-.315-.015-.93-.225-.93-.045 0-.09 0-.135.015-1.215.225-2.655.39-3.915.39-.66 0-1.365-.045-1.995-.27-.465-.165-.99-.54-.99-1.08 0-.57.345-.975.735-1.35.63-.6 1.905-1.335 2.7-1.77 1.02-.555 2.625-1.365 3.705-1.725.12-.045.285-.09.285-.24 0-.21-.315-.72-.435-.915-.09-.15-.345-.6-.54-.6-.135 0-.27.09-.39.15-.39.255-2.79 1.665-3.06 1.665-.255 0-.3-.255-.345-.45a20.512 20.512 0 01-.465-2.685c-.03-.345 0-.57-.42-.57-.24 0-.495.045-.72.075-.48.075-.975.075-.975.3zm21.855 6.915c.225 0 .3.03.45.18.045.075.105.135.165.195.03.045.06.075.06.135 0 .15-.165.15-.195.15h-2.925c-.09 0-.18-.03-.18-.15 0-.045.03-.09.06-.135.075-.06.135-.135.21-.21.15-.15.225-.165.435-.165h1.92zm1.635-3.27c.165.015.27.12.285.285v.09a.295.295 0 01-.285.285h-5.235c-.18 0-.27-.12-.285-.285v-.09c.015-.165.105-.285.285-.285h5.235zm.285-1.095c0 .18-.12.27-.285.285h-5.235c-.18 0-.285-.105-.285-.285v-.045c.015-.165.105-.285.285-.285h5.235c.165.015.27.12.285.285v.045zm-.72 6.33c0 .18-.105.3-.285.3h-3.84c-.18 0-.285-.12-.285-.3v-.09c0-.165.105-.285.285-.285h3.84c.18 0 .285.12.285.285v.09zm-.285 1.125c.18 0 .285.105.285.285v.12c0 .165-.105.285-.285.285h-3.84c-.18 0-.285-.12-.285-.285v-.12c0-.18.105-.285.285-.285h3.84zm-2.925-8.715c-.225 0-.255-.15-.255-.33 0-.21.105-.285.285-.285h2.01c.21 0 .285.09.285.285v.045c0 .24-.105.27-.255.285h-2.07zm-3.42-1.665c-.585 0-1.185-.03-1.77-.03-.345 0-.345.12-.345.555 0 .435 0 .555.345.555.585 0 1.185-.03 1.77-.03h1.29c.195 0 .285.075.285.27v.045c-.015.165-.06.285-.24.3-.195-.015-.39-.015-.585-.015-.42 0-.69.105-.69.57 0 .24.015.465.015.78v1.275c0 .315-.015.54-.015.795 0 .465.27.57.675.57.39 0 .78-.03 1.17-.03h.33c.045 0 .27.015.27.21 0 .045-.03.09-.06.135l-.045.075c-.12.165-.225.195-.42.195h-2.115c-.57 0-1.14-.03-1.71-.03-.285 0-.285.165-.285.525 0 .42-.015.585.285.585.57 0 1.14-.015 1.71-.015h1.005c.09 0 .18.03.18.135 0 .06-.015.09-.06.12-.825.705-1.83 1.32-2.85 1.725-.12.045-.33.105-.33.255 0 .24.465.975.78.975.27 0 1.455-.69 1.755-.855a.242.242 0 01.135-.045c.15 0 .195.12.21.24V63.7c0 .3-.03.585-.03.885 0 .3.195.285.795.285.645 0 .78.015.78-.315.015-.12.075-.165.18-.165h3.915c.195 0 .24.105.285.27.06.195.195.195.78.195.63 0 .795.015.795-.285s-.03-.585-.03-.885v-1.47c.015-.12.06-.24.21-.24.045 0 .09.015.135.045.27.15 1.605.9 1.83.9.3 0 .825-.72.825-1.02 0-.18-.21-.24-.42-.315a11.438 11.438 0 01-2.985-1.665c-.03-.045-.06-.075-.06-.12 0-.105.09-.135.18-.135h1.2c.57 0 1.155.015 1.725.015.285 0 .27-.165.27-.555s.015-.555-.27-.555c-.57 0-1.155.03-1.725.03h-4.845c-.09-.015-.105-.06-.105-.075 0-.03.015-.045.045-.06.06-.045.09-.045.15-.06.075-.015.21-.045.21-.15 0-.135-.225-.18-.33-.225-.03-.015-.03-.045.015-.045h2.835c.405 0 .735.03 1.005.03.57 0 .84-.09.84-.57 0-.27-.015-.525-.015-.795v-1.275c0-.255.015-.525.015-.78 0-.495-.285-.57-.72-.57-.195 0-.405 0-.6.015-.195-.015-.225-.165-.225-.315v-.03c0-.195.075-.27.285-.27h1.365c.585 0 1.17.03 1.755.03.36 0 .345-.12.345-.555 0-.435.015-.555-.345-.555-.585 0-1.17.03-1.755.03h-1.275c-.165-.015-.36-.045-.405-.24.015-.06.015-.09.03-.135l.015-.03c.045-.06.06-.09.135-.12.09-.075.165-.105.165-.18 0-.15-.255-.165-.36-.165a20.92 20.92 0 00-1.32-.09c-.135 0-.27.015-.27.165 0 .045.015.09.015.135l.045.33c0 .24-.12.33-.345.33h-1.875c-.18 0-.345-.045-.405-.24l.03-.135.015-.03c.045-.06.06-.09.12-.12.105-.075.18-.105.18-.18 0-.15-.255-.165-.36-.165-.3-.03-1.065-.09-1.335-.09-.12 0-.255.015-.255.165 0 .045.015.09.015.135.015.105.03.225.03.33 0 .24-.105.33-.345.33h-1.245zm19.395 2.355c-.24 0-.255.225-.255.66 0 .105-.015.21-.015.33a23.96 23.96 0 01-.36 3.27c-.09.495-.21.99-.345 1.47-.045.15-.15.375-.15.525 0 .435 1.005.585 1.14.585.21 0 .33-.165.45-.315.945-1.185 2.535-2.505 4.11-2.505.96 0 1.8.555 1.8 1.59 0 1.275-1.11 1.74-2.175 2.01-.63.165-1.35.27-1.995.3-.195.015-.375.03-.375.27 0 .255.15.75.255.975.135.285.225.42.555.42.465 0 1.485-.27 1.95-.405 1.815-.54 3.405-1.44 3.405-3.57 0-1.89-1.425-3.12-3.27-3.12-1.425 0-2.325.6-3.435 1.38-.06.045-.12.09-.195.09-.105 0-.15-.09-.15-.18s.03-.225.045-.315c.15-.69.24-1.395.36-2.085.06-.3.075-.435.315-.585.06-.03.135-.075.135-.165 0-.12-.165-.165-.27-.21-.255-.09-1.305-.42-1.53-.42zm.96-1.725c0 .165.195.24.345.33.645.36 1.32.795 1.89 1.275.12.09.315.3.48.3.315 0 .93-.915.93-1.185 0-.255-.87-.735-1.095-.87-.27-.165-1.485-.945-1.71-.945-.36 0-.84.9-.84 1.095zm19.425 5.175c.615 0 .75.855.75 1.32 0 .465-.18 1.23-.78 1.23-.6 0-.705-.825-.705-1.275 0-.45.15-1.275.735-1.275zm.075-6.36c-.12 0-.195.06-.195.18 0 .045 0 .075.015.12.09.45.15 1.395.15 1.86 0 .225-.105.405-.33.465-.135.03-3.66.225-4.065.24-.735.03-.87 0-.87.3 0 .255.075.825.12 1.08.045.195.06.405.3.405.075 0 .15-.015.225-.03.72-.15 2.655-.36 3.435-.435.18-.015.87-.09.99-.09.165 0 .27.075.27.63 0 .12-.105.165-.18.18-1.515.135-2.115 1.455-2.115 2.835 0 1.095.48 2.505 1.785 2.505.105 0 .24-.045.345-.075.045-.015.075-.015.12-.015.06 0 .105.06.105.105 0 .09-.045.15-.075.225-.375.66-.51.915-1.08 1.455-.09.09-.345.3-.345.42 0 .27 1.215.645 1.395.645.66 0 2.265-2.685 2.265-5.1 0-.69-.135-1.485-.465-2.1-.135-.24-.15-.36-.15-.78v-.525c0-.21.075-.42.285-.495.165-.045 1.56-.06 1.83-.06.84 0 1.965.075 2.175.075.15 0 .33.015.33-.9 0-.675-.105-.765-.345-.765-.645 0-2.25.09-2.985.12-.165 0-.75.045-.87.045-.27 0-.435-.15-.435-.435 0-.315 0-.645.015-.96.015-.435.135-.555.24-.63.045-.045.09-.09.09-.165 0-.135-.45-.18-.81-.21-.36-.03-.825-.12-1.17-.12zm12.303 9.99c0 .135.165.225.27.285a9.241 9.241 0 012.28 2.04c.075.09.18.225.3.225.345 0 1.095-.825 1.095-1.155 0-.375-2.58-2.445-2.925-2.445-.255 0-1.02.795-1.02 1.05zm18.975-.81c.08.31.215.585.405.825.17.21.405.4.705.57.3.17.705.255 1.215.255.36 0 .675-.045.945-.135.28-.1.515-.23.705-.39a1.65 1.65 0 00.6-1.275c0-.57-.18-1.025-.54-1.365-.36-.34-.88-.51-1.56-.51h-2.55v-1.5l3.15-2.25v-.075h-4.35V53.5h6.9v1.635l-2.7 1.965-.75.3v.075a11.105 11.105 0 01.51-.06c.1-.01.205-.015.315-.015.47 0 .905.085 1.305.255.4.17.745.41 1.035.72.3.3.535.66.705 1.08.17.42.255.885.255 1.395 0 .47-.095.915-.285 1.335-.19.41-.46.775-.81 1.095-.34.31-.755.555-1.245.735a4.49 4.49 0 01-1.635.285c-.46 0-.875-.05-1.245-.15-.36-.09-.68-.21-.96-.36a4.45 4.45 0 01-.72-.525c-.2-.2-.37-.405-.51-.615-.33-.48-.56-1.03-.69-1.65h1.8zm10.357-.45c0-.39.055-.765.165-1.125.12-.36.265-.7.435-1.02.18-.33.375-.64.585-.93.21-.29.415-.565.615-.825l2.4-3.15h2.025l-2.265 2.955-.66.57v.075c.08-.03.18-.065.3-.105.11-.03.24-.055.39-.075.16-.03.355-.045.585-.045.49 0 .945.095 1.365.285.43.18.805.435 1.125.765.32.33.57.72.75 1.17.19.45.285.935.285 1.455 0 .53-.1 1.025-.3 1.485-.19.45-.465.845-.825 1.185-.36.33-.79.59-1.29.78-.49.2-1.035.3-1.635.3-.6 0-1.15-.1-1.65-.3a4.01 4.01 0 01-1.275-.78c-.36-.34-.64-.735-.84-1.185a3.851 3.851 0 01-.285-1.485zm1.8 0c0 .64.205 1.165.615 1.575.41.4.955.6 1.635.6s1.225-.2 1.635-.6c.41-.41.615-.935.615-1.575 0-.64-.205-1.16-.615-1.56-.41-.41-.955-.615-1.635-.615s-1.225.205-1.635.615c-.41.4-.615.92-.615 1.56zm12.304.525c.08.3.215.565.405.795.17.2.405.38.705.54.3.16.705.24 1.215.24.68 0 1.21-.18 1.59-.54.39-.37.585-.84.585-1.41 0-.6-.195-1.085-.585-1.455-.38-.38-.91-.57-1.59-.57-.38 0-.7.055-.96.165-.25.1-.455.21-.615.33-.18.14-.33.3-.45.48h-1.65l.45-6.15h6.375v1.65h-4.95l-.225 2.7h.075c.15-.15.335-.285.555-.405.19-.11.425-.205.705-.285.28-.09.61-.135.99-.135.52 0 1.005.095 1.455.285.45.18.84.435 1.17.765.33.33.585.72.765 1.17.19.45.285.935.285 1.455 0 .51-.095.985-.285 1.425-.19.43-.46.81-.81 1.14-.34.32-.755.57-1.245.75a4.49 4.49 0 01-1.635.285c-.46 0-.875-.045-1.245-.135-.36-.09-.68-.21-.96-.36-.27-.15-.51-.32-.72-.51-.2-.2-.37-.4-.51-.6-.33-.48-.56-1.02-.69-1.62h1.8zm14.643-1.905c.03-.255.165-.39.42-.42h4.515c.255.03.39.165.42.42v2.64c-.03.255-.165.39-.42.42h-4.515c-.255-.03-.39-.165-.42-.42v-2.64zm.42-1.845c-.255-.03-.39-.165-.42-.42v-2.4c.03-.255.165-.39.42-.42h4.515c.255.03.39.165.42.42v2.4c-.03.255-.165.39-.42.42h-4.515zm4.905 6.735c-.015.045-.015.09-.015.135 0 .405.18.405.855.405s.855.015.855-.405c0-.63-.045-1.245-.045-1.875v-7.515c0-.48.03-.96.03-1.44 0-.615-.255-.765-.825-.765-.435 0-.87.03-1.305.03h-4.38c-.45 0-.885-.03-1.32-.03-.585 0-.825.18-.825.78 0 .48.03.945.03 1.425v7.545c0 .615-.045 1.245-.045 1.875 0 .405.21.405.855.405.705 0 .855 0 .855-.42v-.15c0-.24.105-.345.345-.345h4.575c.24 0 .345.105.36.345zm11.085-3.015c.75 0 1.335.585 1.335 1.335 0 .735-.6 1.335-1.335 1.335s-1.335-.6-1.335-1.335.6-1.335 1.335-1.335zm0-.75a2.08 2.08 0 00-2.085 2.085 2.1 2.1 0 002.085 2.085 2.09 2.09 0 002.085-2.085 2.08 2.08 0 00-2.085-2.085z" fill="#fff"/></svg>