<svg width="165" height="146" viewBox="0 0 165 146" fill="none" xmlns="http://www.w3.org/2000/svg"><path d="M60.65.77h-7.318a.436.436 0 00-.435.435v35.366c0 .24.195.436.435.436h7.317c.24 0 .436-.195.436-.436V1.205a.436.436 0 00-.436-.435zm48.183 23.302L95.767.77H85.662v36.238h7.753V25.292c0-3.397 0-6.838-.305-10.235v-.872a.87.87 0 011.655-.479l13.066 23.302h10.105V.77h-7.796v11.718c0 3.44 0 6.88.305 10.278v.827a.874.874 0 01-.623.855.871.871 0 01-.989-.377zm44.805-10.812c-3.485-.871-6.49-1.656-6.49-3.703 0-2.047 1.742-2.917 4.617-2.917 4.137 0 5.226 2.264 5.488 3.179a.431.431 0 00.435.304h6.533a.435.435 0 00.344-.155.44.44 0 00.092-.368A12.11 12.11 0 00151.591.062c-6.011 0-12.065 3.353-12.065 9.712 0 6.36 6.359 8.364 11.498 9.67 3.485.915 6.49 1.655 6.49 3.745 0 2.091-2.875 3.093-5.27 3.093a6.185 6.185 0 01-6.577-4.356.394.394 0 00-.436-.304h-6.533a.388.388 0 00-.454.319.394.394 0 00.019.204 13.5 13.5 0 0013.981 10.582c8.711 0 12.718-4.965 12.718-9.886.174-6.577-6.229-8.013-11.324-9.581zm6.424 30.288h-16.681a.436.436 0 00-.436.435v5.663c0 .24.195.435.436.435h16.681a.436.436 0 00.436-.436v-5.662a.436.436 0 00-.436-.435zM23.46.983l-9.407 13.632a.436.436 0 01-.392 0H9.305a.435.435 0 01-.435-.437V1.112A.432.432 0 008.6.71a.436.436 0 00-.167-.034H1.117a.481.481 0 00-.435.436v35.454a.432.432 0 00.268.402c.053.022.11.034.167.034h7.535a.393.393 0 00.436-.436V22.89a.482.482 0 01.436-.436h4.355a.482.482 0 01.392.22l9.669 14.155a.392.392 0 00.348 0h8.71a.435.435 0 00.35-.653L25.29 24.11l-1.96-2.875a6.269 6.269 0 01-1.263-3.222 5.622 5.622 0 011.22-3.224l2.003-2.875 7.273-10.627a.432.432 0 00.041-.455.437.437 0 00-.39-.24h-8.23a.478.478 0 00-.524.39zM51.733 132.25h1.54v-16.697L31.524 89.325H16.869l.108 2.185 34.756 40.74zm-29.486-9.633h-.968l-5.302 9.639h11.537l-5.267-9.639zm49.91 9.402H58.22v-1.074a17.921 17.921 0 001.326-6.486v-6.486a28.655 28.655 0 00-.86-8.777 4.658 4.658 0 00-1.935-2.759v-.718l14.082-3.367v22.107a17.921 17.921 0 001.325 6.486v1.074H58.22zM65.07 99.651a5.697 5.697 0 100-11.394 5.697 5.697 0 000 11.394zm29.908 11.445l-.609-7.595a24.715 24.715 0 00-9.352-1.183 10.41 10.41 0 00-4.13.625 10.416 10.416 0 00-5.96 5.609 10.423 10.423 0 00-.874 4.085 7.74 7.74 0 004.945 7.703c2.042 1.326 9.244 4.694 10.462 7.166 1.219 2.473 0 4.192-3.26 4.192a18.872 18.872 0 01-7.812-4.692 25.081 25.081 0 01-4.084-4.444h-.466l.824 8.421a31.384 31.384 0 0010.964 2.293c5.626 0 11.645-2.293 11.645-9.853a10.18 10.18 0 00-3.583-7.453c-3.225-2.759-7.954-4.049-10.104-5.912-3.583-3.117-1.433-5.985 1.791-5.985 4.945 0 8.6 7.166 8.6 7.166l1.003-.143zm24.58-.002l-.573-7.595a25.087 25.087 0 00-9.388-1.183 10.397 10.397 0 00-10.928 10.319 7.735 7.735 0 004.91 7.703c2.041 1.326 9.243 4.694 10.461 7.167 1.218 2.472 0 4.192-3.26 4.192a19.103 19.103 0 01-7.812-4.693 25.112 25.112 0 01-4.084-4.444h-.466l.824 8.421a31.388 31.388 0 0010.964 2.294c5.626 0 11.645-2.294 11.645-9.854a10.18 10.18 0 00-3.583-7.453c-3.224-2.759-7.954-4.049-10.104-5.912-3.583-3.117-1.433-5.985 1.792-5.985 4.944 0 8.599 7.166 8.599 7.166l1.003-.143z" fill="#fff"/><path d="M139.352 120.1s-2.329-5.698-3.942-9.747a8.68 8.68 0 01.932-6.592v-.359h-15.981v.359s11.645 26.729 12.47 28.306c.824 1.576-.574 3.798-4.408 4.264a30.71 30.71 0 01-6.736 0v9.281a19.565 19.565 0 0011.538-8.062 298.802 298.802 0 0012.433-27.626 19.215 19.215 0 014.013-5.626v-1.003h-7.56v.359a4.516 4.516 0 011.576 3.977 30.527 30.527 0 01-4.335 12.469zM22.559 92.218h-1.577v36.547h1.577V92.218zm29.453 6.548h.967l5.267-9.603H46.71l5.303 9.603z" fill="#fff"/><path d="M53.278 95.695H51.7v36.548h1.577V95.695z" fill="#fff"/></svg>