<svg width="170" height="23" viewBox="0 0 170 23" fill="none" xmlns="http://www.w3.org/2000/svg"><rect width="170" height="21.519" rx="10.759" fill="#F5F2EF"/><path d="M40.968 7.277c0-.195-.364-.871-.468-1.079-.325-.598-.52-1.014-.728-1.014-.143 0-.676.208-.676.429 0 .078.052.169.091.221.312.507.598 1.04.832 1.586.052.13.104.247.273.247.169 0 .676-.169.676-.39zm-4.147 1.027c.364 0 .741.026 1.118.026.299 0 .299-.13.299-.455 0-.312 0-.455-.286-.455-.377 0-.754.026-1.131.026h-1.885c-.377 0-.754-.026-1.131-.026-.286 0-.299.117-.299.455 0 .325 0 .455.299.455.377 0 .754-.026 1.131-.026h1.885zm-.351 3.458c.338 0 .65.026.91.026.273 0 .273-.143.273-.442 0-.286.013-.442-.273-.442-.208 0-.559.026-.91.026h-1.066c-.364 0-.715-.026-.923-.026-.286 0-.273.156-.273.442 0 .299 0 .442.273.442.26 0 .585-.026.923-.026h1.066zm.052-1.729c.312 0 .611.026.858.026.286 0 .273-.156.273-.442 0-.286.013-.442-.273-.442-.234 0-.546.026-.858.026h-1.183c-.325 0-.624-.026-.858-.026-.273 0-.273.13-.273.442 0 .299 0 .442.273.442.234 0 .533-.026.858-.026h1.183zm.078-3.51c.338 0 .611.026.832.026.286 0 .273-.156.273-.442 0-.273.013-.442-.26-.442-.156 0-.533.026-.845.026h-1.3c-.312 0-.676-.026-.832-.026-.273 0-.273.169-.273.442 0 .286 0 .442.273.442.182 0 .507-.026.832-.026h1.3zm-1.196 8.762c-.221 0-.364-.143-.364-.364v-1.053c0-.208.143-.364.364-.364h1.027c.221 0 .364.143.364.364v1.053c0 .221-.143.364-.364.364h-1.027zm1.378 1.3c0 .247.156.26.494.26.39 0 .494-.026.494-.286 0-.286-.013-.572-.013-.845V13.92c0-.234.013-.468.013-.702 0-.416-.182-.572-.585-.572-.195 0-.39.013-.585.013h-1.365c-.195 0-.39-.013-.585-.013-.416 0-.572.156-.572.572v2.496c0 .273-.013.559-.013.845 0 .26.104.286.494.286.416 0 .494-.026.494-.312v-.169c0-.182.091-.247.26-.247h1.209c.169 0 .26.065.26.247v.221zm3.575-8.71c-.494 0-.975-.026-1.469-.026-.312 0-.312.143-.312.494 0 .364 0 .494.312.494.494 0 .975-.026 1.469-.026h.273c.26 0 .364.104.364.364v.741c0 .26-.104.364-.364.364h-.247c-.416 0-.832-.026-1.248-.026-.286 0-.286.169-.286.481 0 .325 0 .507.286.507.416 0 .832-.039 1.248-.039h.247c.26 0 .364.117.364.364v.832c0 .26-.104.364-.364.364h-.988c-.429 0-.897-.026-1.196-.026-.273 0-.273.169-.273.494 0 .312 0 .494.26.494.403 0 .806-.026 1.209-.026h.988c.26 0 .364.104.364.351v.546c0 .585-.026 1.157-.026 1.742 0 .416.104.468.546.468.455 0 .559-.052.559-.455 0-.585-.039-1.17-.039-1.755v-.546c0-.247.117-.351.364-.351h1.131c.39 0 .793.026 1.196.026.26 0 .26-.156.26-.494 0-.325.013-.494-.26-.494-.312 0-.767.026-1.196.026h-1.131c-.247 0-.364-.104-.364-.364v-.832c0-.247.117-.364.364-.364h.286c.429 0 .845.039 1.274.039.273 0 .273-.169.273-.494 0-.338 0-.494-.273-.494-.429 0-.845.026-1.274.026h-.286c-.247 0-.364-.104-.364-.364v-.741c0-.26.117-.364.364-.364h.559c.494 0 .988.026 1.482.026.299 0 .299-.143.299-.494s.013-.494-.312-.494c-.377 0-.754.026-1.131.026-.104 0-.195-.052-.195-.169a.22.22 0 01.039-.13 15.61 15.61 0 00.806-1.534c.052-.104.13-.117.234-.143.078-.013.156-.026.156-.117 0-.078-.052-.117-.208-.195-.13-.065-.767-.351-.858-.351-.078 0-.078.039-.143.208-.273.741-.637 1.443-1.027 2.145-.13.234-.26.286-.533.286h-1.209zm11.947-1.638c-.169 0-.182.13-.182.312 0 .26 0 .507-.026.767-.13 1.612-.247 3.224-.247 4.836 0 .91.052 2.093.611 2.847.507.676 1.352.988 2.171.988 1.651 0 3.133-1.04 3.9-2.47.169-.312.507-1.118.507-1.469 0-.364-.624-.884-.871-.884-.169 0-.195.221-.221.403-.104.715-.338 1.365-.793 1.937-.611.767-1.612 1.339-2.6 1.339-1.521 0-1.547-1.612-1.547-2.73 0-1.482.078-2.964.286-4.433.026-.234.065-.611.26-.78.065-.052.143-.104.143-.195 0-.117-.143-.169-.247-.195-.195-.065-.975-.273-1.144-.273zm19.864.13c-.156-.156-.377-.364-.494-.364-.078 0-.143.078-.182.13-.598.741-1.664 1.625-2.405 2.249-.416.338-1.313 1.066-1.625 1.456a1.474 1.474 0 00-.273.871c0 .546.26.91.598 1.313.637.741 1.326 1.43 2.015 2.119a23.79 23.79 0 011.573 1.664c.091.104.234.299.364.299.286 0 .897-.559.897-.832 0-.195-.351-.468-.507-.598-.923-.819-1.859-1.638-2.717-2.522-.299-.299-.962-.988-.962-1.417 0-.247.169-.429.338-.585a46.279 46.279 0 012.08-1.82c.364-.299.728-.598 1.118-.897.182-.091.247-.247.494-.26.091 0 .286.013.286-.13 0-.13-.468-.546-.598-.676zm15.665 7.566c0 .611-.351.845-.923.845-.377 0-1.079-.169-1.079-.65 0-.468.715-.598 1.066-.598.208 0 .585.052.767.117.117.052.169.156.169.286zm-.26-7.787c-.104 0-.156.052-.156.156v.117c.052.351.169 1.625.169 1.95 0 .325-.377.299-.949.299-.559 0-1.157-.039-1.716-.091a1.762 1.762 0 00-.26-.026c-.169 0-.182.13-.182.299 0 .169 0 .741.169.793.195.052 1.053.065 1.313.065.494 0 1.378-.052 1.443-.052.312 0 .286.325.299.468.026.481.091 1.833.091 2.275 0 .169-.065.26-.247.26-.039 0-.091 0-.13-.013a5.026 5.026 0 00-.624-.039c-.949 0-1.937.416-1.937 1.521 0 1.131 1.131 1.573 2.093 1.573.832 0 1.651-.299 1.807-1.209.013-.104.039-.208.169-.208.195 0 .949.637 1.118.806.078.078.208.208.338.208.234 0 .611-.481.611-.754 0-.416-1.404-1.17-1.768-1.339-.247-.117-.403-.156-.416-.481-.026-.416-.117-2.535-.117-2.873 0-.312.195-.351.429-.39 1.313-.195 1.69-.247 1.69-.52 0-.117-.078-.884-.325-.884a.482.482 0 00-.195.052c-.26.078-1.157.338-1.378.338-.247 0-.273-.195-.273-.481v-.299c0-.273-.013-.754.143-.975.052-.065.117-.13.117-.208 0-.078-.052-.104-.117-.13-.208-.052-1.014-.208-1.209-.208zm-5.018.143c-.104 0-.143.117-.156.208-.091.364-.208.728-.312 1.092-.377 1.404-.611 2.704-.611 4.173 0 1.352.195 2.704.767 3.939.065.143.182.403.364.403.117 0 .299-.078.403-.117.234-.104.403-.195.403-.481 0-.169-.013-.351-.013-.533 0-.546.39-1.482.533-2.041.013-.052.065-.182.065-.247 0-.143-.286-.312-.416-.312-.156 0-.299.481-.364.637-.156.39-.247.585-.351.585-.286 0-.338-1.599-.338-1.859 0-1.183.26-2.899.676-4.017.169-.442.234-.52.507-.65.065-.026.104-.052.104-.13 0-.104-.143-.169-.221-.208-.169-.078-.923-.442-1.04-.442zm15.808 5.902c-.013 0-.91.195-.91.481 0 .338.286.91.468 1.183.819 1.157 2.262 1.352 3.575 1.352.728 0 3.315-.169 3.9-.377.221-.078.26-.286.26-.494 0-.52-.052-.754-.247-.754a.553.553 0 00-.143.026 17.553 17.553 0 01-3.952.455c-.754 0-1.729-.104-2.262-.702-.26-.286-.364-.585-.442-.949-.039-.143-.091-.221-.247-.221zm.702-5.044c-.156 0-.195.117-.234.234-.026.104-.104.52-.104.611 0 .104.013.182.104.247.429.286 2.327.351 2.912.351.741 0 1.638-.039 2.379-.143.26-.039.338-.078.338-.39 0-.208 0-.832-.299-.832-.052 0-.117.013-.156.013-.78.182-1.573.26-2.366.26-.754 0-1.521-.065-2.249-.286a1.44 1.44 0 00-.325-.065zm17.004-1.404c-.169 0-.169.221-.182.416-.039.325-.195 1.599-.325 1.807-.143.208-.598.208-1.365.208-.416 0-.832-.026-1.261-.026-.091 0-.273-.013-.273.299 0 .143.052.494.091.637.052.156.117.234.299.234.078 0 .143 0 .221-.013l1.807-.156c.104-.013.208.052.208.169 0 .104-.13.598-.169.728a13.709 13.709 0 01-.754 2.236.784.784 0 00-.078.299c0 .299.585.598.832.598.169 0 .273-.182.364-.299.65-.897 2.132-1.612 3.237-1.612.884 0 1.443.65 1.443 1.495 0 .936-.546 1.586-1.391 1.898a6.747 6.747 0 01-2.21.377c-.442 0-.806-.065-.962-.065-.143 0-.26.078-.26.234 0 .169.091.494.143.663.078.234.13.299.507.299.767 0 1.937-.169 2.678-.364 1.469-.377 2.587-1.365 2.587-2.964 0-1.56-1.001-2.574-2.561-2.574-.962 0-1.69.338-2.496.832-.052.039-.117.078-.182.078-.065 0-.104-.039-.104-.104 0-.091.078-.338.104-.442.117-.403.182-.702.234-.936.13-.598.156-.702.559-.754a62.658 62.658 0 003.133-.455c.195-.039.377-.065.377-.26 0-.091-.078-.936-.325-.936-.091 0-.234.052-.338.091-.533.169-2.184.585-2.704.585a.193.193 0 01-.208-.195c0-.065.026-.156.039-.221.039-.143.065-.26.091-.377.091-.338.143-.52.325-.663.065-.052.143-.117.143-.195 0-.273-1.222-.572-1.274-.572zm14.105 2.353c-.195 0-.195.169-.208.624-.013.156-.013.338-.026.559-.065.962-.182 2.002-.403 2.951-.065.312-.312 1.092-.312 1.105 0 .338.728.442.806.442.169 0 .286-.156.377-.273.858-1.066 2.249-2.197 3.679-2.197.923 0 1.703.559 1.703 1.534 0 1.196-.962 1.638-1.963 1.898-.559.143-1.144.234-1.729.286-.143.013-.325.013-.325.208 0 .182.117.507.195.663.104.208.169.299.416.299.234 0 .754-.13 1.001-.182 1.69-.403 3.523-1.105 3.523-3.146 0-1.599-1.196-2.6-2.743-2.6-1.209 0-2.301.624-3.198 1.391-.052.039-.104.078-.169.078-.065 0-.104-.065-.104-.13 0-.052.013-.104.013-.156a42.61 42.61 0 00.377-2.184c.052-.351.078-.416.299-.585.039-.026.078-.065.078-.13 0-.104-.13-.143-.221-.169-.182-.065-.923-.286-1.066-.286zm.871-1.716c0 .13.156.182.299.26.52.286 1.105.663 1.573 1.066.091.078.234.221.364.221.221 0 .637-.624.637-.832 0-.195-.559-.507-.741-.624-.234-.143-1.365-.858-1.534-.858-.26 0-.598.598-.598.767z" fill="#6E5944"/></svg>